<mxfile host="65bd71144e" pages="2">
    <diagram name="Page-1" id="xX03laVXA4n0q3OXyU2M">
        <mxGraphModel dx="880" dy="571" grid="1" gridSize="10" guides="1" tooltips="1" connect="1" arrows="1" fold="1" page="1" pageScale="1" pageWidth="1169" pageHeight="827" math="0" shadow="0">
            <root>
                <mxCell id="0"/>
                <mxCell id="1" parent="0"/>
                <mxCell id="TZwm0IVaS_AzGCLTSLs2-1" value="&lt;span style=&quot;border-color: var(--border-color);&quot;&gt;ΩMEGA&lt;/span&gt;" style="shape=umlFrame;whiteSpace=wrap;html=1;pointerEvents=0;recursiveResize=0;container=1;collapsible=0;width=160;" parent="1" vertex="1">
                    <mxGeometry x="40" y="40" width="1040" height="680" as="geometry"/>
                </mxCell>
                <mxCell id="TZwm0IVaS_AzGCLTSLs2-2" value="«system»&lt;br&gt;&lt;b&gt;ΩMEGA&lt;/b&gt;" style="html=1;dropTarget=0;whiteSpace=wrap;verticalAlign=top;fillColor=none;strokeWidth=3;" parent="1" vertex="1">
                    <mxGeometry x="240" y="110" width="640" height="410" as="geometry"/>
                </mxCell>
                <mxCell id="TZwm0IVaS_AzGCLTSLs2-3" value="" style="shape=module;jettyWidth=8;jettyHeight=4;" parent="TZwm0IVaS_AzGCLTSLs2-2" vertex="1">
                    <mxGeometry x="1" width="20" height="20" relative="1" as="geometry">
                        <mxPoint x="-27" y="7" as="offset"/>
                    </mxGeometry>
                </mxCell>
                <mxCell id="TZwm0IVaS_AzGCLTSLs2-4" style="rounded=0;orthogonalLoop=1;jettySize=auto;html=1;edgeStyle=elbowEdgeStyle;endArrow=open;endFill=0;dashed=1;dashPattern=8 8;" parent="1" source="TZwm0IVaS_AzGCLTSLs2-5" target="TZwm0IVaS_AzGCLTSLs2-19" edge="1">
                    <mxGeometry relative="1" as="geometry">
                        <Array as="points">
                            <mxPoint x="760" y="260"/>
                        </Array>
                    </mxGeometry>
                </mxCell>
                <mxCell id="TZwm0IVaS_AzGCLTSLs2-5" value="ComponentManager" style="html=1;dropTarget=0;whiteSpace=wrap;" parent="1" vertex="1">
                    <mxGeometry x="680" y="280" width="160" height="80" as="geometry"/>
                </mxCell>
                <mxCell id="TZwm0IVaS_AzGCLTSLs2-6" value="" style="shape=module;jettyWidth=8;jettyHeight=4;" parent="TZwm0IVaS_AzGCLTSLs2-5" vertex="1">
                    <mxGeometry x="1" width="20" height="20" relative="1" as="geometry">
                        <mxPoint x="-27" y="7" as="offset"/>
                    </mxGeometry>
                </mxCell>
                <mxCell id="TZwm0IVaS_AzGCLTSLs2-7" style="edgeStyle=orthogonalEdgeStyle;rounded=0;orthogonalLoop=1;jettySize=auto;html=1;endArrow=open;endFill=0;dashed=1;dashPattern=8 8;" parent="1" source="TZwm0IVaS_AzGCLTSLs2-10" target="TZwm0IVaS_AzGCLTSLs2-22" edge="1">
                    <mxGeometry relative="1" as="geometry">
                        <Array as="points">
                            <mxPoint x="360" y="440"/>
                        </Array>
                    </mxGeometry>
                </mxCell>
                <mxCell id="TZwm0IVaS_AzGCLTSLs2-8" style="edgeStyle=orthogonalEdgeStyle;rounded=0;orthogonalLoop=1;jettySize=auto;html=1;endArrow=open;endFill=0;dashed=1;dashPattern=8 8;" parent="1" source="TZwm0IVaS_AzGCLTSLs2-10" target="TZwm0IVaS_AzGCLTSLs2-19" edge="1">
                    <mxGeometry relative="1" as="geometry">
                        <Array as="points">
                            <mxPoint x="360" y="200"/>
                        </Array>
                    </mxGeometry>
                </mxCell>
                <mxCell id="TZwm0IVaS_AzGCLTSLs2-9" style="edgeStyle=orthogonalEdgeStyle;rounded=0;orthogonalLoop=1;jettySize=auto;html=1;endArrow=none;endFill=0;" parent="1" source="TZwm0IVaS_AzGCLTSLs2-10" target="TZwm0IVaS_AzGCLTSLs2-26" edge="1">
                    <mxGeometry relative="1" as="geometry"/>
                </mxCell>
                <mxCell id="TZwm0IVaS_AzGCLTSLs2-10" value="FW-ModuleManager" style="html=1;dropTarget=0;whiteSpace=wrap;" parent="1" vertex="1">
                    <mxGeometry x="280" y="280" width="160" height="80" as="geometry"/>
                </mxCell>
                <mxCell id="TZwm0IVaS_AzGCLTSLs2-11" value="" style="shape=module;jettyWidth=8;jettyHeight=4;" parent="TZwm0IVaS_AzGCLTSLs2-10" vertex="1">
                    <mxGeometry x="1" width="20" height="20" relative="1" as="geometry">
                        <mxPoint x="-27" y="7" as="offset"/>
                    </mxGeometry>
                </mxCell>
                <mxCell id="TZwm0IVaS_AzGCLTSLs2-12" style="rounded=0;orthogonalLoop=1;jettySize=auto;html=1;endArrow=open;endFill=0;dashed=1;dashPattern=8 8;" parent="1" source="TZwm0IVaS_AzGCLTSLs2-16" target="TZwm0IVaS_AzGCLTSLs2-19" edge="1">
                    <mxGeometry relative="1" as="geometry">
                        <Array as="points">
                            <mxPoint x="560" y="260"/>
                        </Array>
                    </mxGeometry>
                </mxCell>
                <mxCell id="TZwm0IVaS_AzGCLTSLs2-13" style="rounded=0;orthogonalLoop=1;jettySize=auto;html=1;endArrow=open;endFill=0;dashed=1;dashPattern=8 8;" parent="1" source="TZwm0IVaS_AzGCLTSLs2-16" target="TZwm0IVaS_AzGCLTSLs2-22" edge="1">
                    <mxGeometry relative="1" as="geometry"/>
                </mxCell>
                <mxCell id="TZwm0IVaS_AzGCLTSLs2-14" style="edgeStyle=orthogonalEdgeStyle;rounded=0;orthogonalLoop=1;jettySize=auto;html=1;endArrow=none;endFill=0;" parent="1" source="TZwm0IVaS_AzGCLTSLs2-5" target="TZwm0IVaS_AzGCLTSLs2-24" edge="1">
                    <mxGeometry relative="1" as="geometry"/>
                </mxCell>
                <mxCell id="TZwm0IVaS_AzGCLTSLs2-15" style="edgeStyle=orthogonalEdgeStyle;rounded=0;orthogonalLoop=1;jettySize=auto;html=1;endArrow=none;endFill=0;" parent="1" source="TZwm0IVaS_AzGCLTSLs2-16" target="TZwm0IVaS_AzGCLTSLs2-36" edge="1">
                    <mxGeometry relative="1" as="geometry">
                        <Array as="points">
                            <mxPoint x="660" y="320"/>
                            <mxPoint x="660" y="420"/>
                        </Array>
                    </mxGeometry>
                </mxCell>
                <mxCell id="TZwm0IVaS_AzGCLTSLs2-16" value="EventManager" style="html=1;dropTarget=0;whiteSpace=wrap;" parent="1" vertex="1">
                    <mxGeometry x="480" y="280" width="160" height="80" as="geometry"/>
                </mxCell>
                <mxCell id="TZwm0IVaS_AzGCLTSLs2-17" value="" style="shape=module;jettyWidth=8;jettyHeight=4;" parent="TZwm0IVaS_AzGCLTSLs2-16" vertex="1">
                    <mxGeometry x="1" width="20" height="20" relative="1" as="geometry">
                        <mxPoint x="-27" y="7" as="offset"/>
                    </mxGeometry>
                </mxCell>
                <mxCell id="TZwm0IVaS_AzGCLTSLs2-18" style="edgeStyle=orthogonalEdgeStyle;rounded=0;orthogonalLoop=1;jettySize=auto;html=1;endArrow=none;endFill=0;" parent="1" source="TZwm0IVaS_AzGCLTSLs2-19" target="TZwm0IVaS_AzGCLTSLs2-35" edge="1">
                    <mxGeometry relative="1" as="geometry">
                        <Array as="points">
                            <mxPoint x="810" y="180"/>
                            <mxPoint x="810" y="180"/>
                        </Array>
                    </mxGeometry>
                </mxCell>
                <mxCell id="TZwm0IVaS_AzGCLTSLs2-19" value="Logger" style="html=1;dropTarget=0;whiteSpace=wrap;" parent="1" vertex="1">
                    <mxGeometry x="480" y="160" width="160" height="80" as="geometry"/>
                </mxCell>
                <mxCell id="TZwm0IVaS_AzGCLTSLs2-20" value="" style="shape=module;jettyWidth=8;jettyHeight=4;" parent="TZwm0IVaS_AzGCLTSLs2-19" vertex="1">
                    <mxGeometry x="1" width="20" height="20" relative="1" as="geometry">
                        <mxPoint x="-27" y="7" as="offset"/>
                    </mxGeometry>
                </mxCell>
                <mxCell id="TZwm0IVaS_AzGCLTSLs2-21" style="edgeStyle=orthogonalEdgeStyle;rounded=0;orthogonalLoop=1;jettySize=auto;html=1;endArrow=none;endFill=0;" parent="1" source="TZwm0IVaS_AzGCLTSLs2-22" target="TZwm0IVaS_AzGCLTSLs2-25" edge="1">
                    <mxGeometry relative="1" as="geometry"/>
                </mxCell>
                <mxCell id="TZwm0IVaS_AzGCLTSLs2-22" value="OSAL" style="html=1;dropTarget=0;whiteSpace=wrap;" parent="1" vertex="1">
                    <mxGeometry x="480" y="400" width="160" height="80" as="geometry"/>
                </mxCell>
                <mxCell id="TZwm0IVaS_AzGCLTSLs2-23" value="" style="shape=module;jettyWidth=8;jettyHeight=4;" parent="TZwm0IVaS_AzGCLTSLs2-22" vertex="1">
                    <mxGeometry x="1" width="20" height="20" relative="1" as="geometry">
                        <mxPoint x="-27" y="7" as="offset"/>
                    </mxGeometry>
                </mxCell>
                <mxCell id="TZwm0IVaS_AzGCLTSLs2-24" value="" style="fontStyle=0;labelPosition=right;verticalLabelPosition=middle;align=left;verticalAlign=middle;spacingLeft=2;" parent="1" vertex="1">
                    <mxGeometry x="860" y="300" width="40" height="40" as="geometry"/>
                </mxCell>
                <mxCell id="TZwm0IVaS_AzGCLTSLs2-25" value="" style="fontStyle=0;labelPosition=right;verticalLabelPosition=middle;align=left;verticalAlign=middle;spacingLeft=2;" parent="1" vertex="1">
                    <mxGeometry x="540" y="500" width="40" height="40" as="geometry"/>
                </mxCell>
                <mxCell id="TZwm0IVaS_AzGCLTSLs2-26" value="" style="fontStyle=0;labelPosition=right;verticalLabelPosition=middle;align=left;verticalAlign=middle;spacingLeft=2;" parent="1" vertex="1">
                    <mxGeometry x="220" y="300" width="40" height="40" as="geometry"/>
                </mxCell>
                <mxCell id="TZwm0IVaS_AzGCLTSLs2-27" style="edgeStyle=orthogonalEdgeStyle;rounded=0;orthogonalLoop=1;jettySize=auto;html=1;endArrow=none;endFill=0;" parent="1" source="TZwm0IVaS_AzGCLTSLs2-28" target="TZwm0IVaS_AzGCLTSLs2-26" edge="1">
                    <mxGeometry relative="1" as="geometry"/>
                </mxCell>
                <mxCell id="TZwm0IVaS_AzGCLTSLs2-28" value="FW-Module" style="verticalAlign=middle;align=center;shape=cube;size=10;direction=south;fontStyle=0;html=1;boundedLbl=1;spacingLeft=5;whiteSpace=wrap;container=0;" parent="1" vertex="1">
                    <mxGeometry x="90" y="280" width="75" height="80" as="geometry"/>
                </mxCell>
                <mxCell id="TZwm0IVaS_AzGCLTSLs2-29" style="edgeStyle=orthogonalEdgeStyle;rounded=0;orthogonalLoop=1;jettySize=auto;html=1;endArrow=none;endFill=0;" parent="1" source="TZwm0IVaS_AzGCLTSLs2-32" target="TZwm0IVaS_AzGCLTSLs2-24" edge="1">
                    <mxGeometry relative="1" as="geometry"/>
                </mxCell>
                <mxCell id="TZwm0IVaS_AzGCLTSLs2-30" style="edgeStyle=orthogonalEdgeStyle;rounded=0;orthogonalLoop=1;jettySize=auto;html=1;entryX=1;entryY=0.5;entryDx=0;entryDy=0;endArrow=none;endFill=0;" parent="1" source="TZwm0IVaS_AzGCLTSLs2-32" target="TZwm0IVaS_AzGCLTSLs2-35" edge="1">
                    <mxGeometry relative="1" as="geometry">
                        <Array as="points">
                            <mxPoint x="985" y="180"/>
                        </Array>
                    </mxGeometry>
                </mxCell>
                <mxCell id="TZwm0IVaS_AzGCLTSLs2-31" style="edgeStyle=elbowEdgeStyle;rounded=0;orthogonalLoop=1;jettySize=auto;html=1;elbow=vertical;endArrow=none;endFill=0;exitX=0.98;exitY=0.793;exitDx=0;exitDy=0;exitPerimeter=0;" parent="1" source="TZwm0IVaS_AzGCLTSLs2-32" target="TZwm0IVaS_AzGCLTSLs2-36" edge="1">
                    <mxGeometry relative="1" as="geometry">
                        <mxPoint x="950" y="430" as="targetPoint"/>
                        <Array as="points">
                            <mxPoint x="960" y="420"/>
                        </Array>
                    </mxGeometry>
                </mxCell>
                <mxCell id="TZwm0IVaS_AzGCLTSLs2-32" value="Component" style="verticalAlign=middle;align=center;shape=cube;size=10;direction=south;fontStyle=0;html=1;boundedLbl=1;spacingLeft=5;whiteSpace=wrap;container=0;" parent="1" vertex="1">
                    <mxGeometry x="940" y="280" width="90" height="80" as="geometry"/>
                </mxCell>
                <mxCell id="TZwm0IVaS_AzGCLTSLs2-33" style="edgeStyle=orthogonalEdgeStyle;rounded=0;orthogonalLoop=1;jettySize=auto;html=1;endArrow=none;endFill=0;" parent="1" source="TZwm0IVaS_AzGCLTSLs2-34" target="TZwm0IVaS_AzGCLTSLs2-25" edge="1">
                    <mxGeometry relative="1" as="geometry"/>
                </mxCell>
                <mxCell id="TZwm0IVaS_AzGCLTSLs2-34" value="Operating&lt;br&gt;System &lt;br&gt;(OS)" style="verticalAlign=middle;align=center;shape=cube;size=10;direction=south;fontStyle=0;html=1;boundedLbl=1;spacingLeft=5;whiteSpace=wrap;container=0;" parent="1" vertex="1">
                    <mxGeometry x="522.5" y="590" width="75" height="80" as="geometry"/>
                </mxCell>
                <mxCell id="TZwm0IVaS_AzGCLTSLs2-35" value="" style="fontStyle=0;labelPosition=right;verticalLabelPosition=middle;align=left;verticalAlign=middle;spacingLeft=2;" parent="1" vertex="1">
                    <mxGeometry x="860" y="160" width="40" height="40" as="geometry"/>
                </mxCell>
                <mxCell id="TZwm0IVaS_AzGCLTSLs2-36" value="" style="fontStyle=0;labelPosition=right;verticalLabelPosition=middle;align=left;verticalAlign=middle;spacingLeft=2;" parent="1" vertex="1">
                    <mxGeometry x="860" y="400" width="40" height="40" as="geometry"/>
                </mxCell>
                <mxCell id="TZwm0IVaS_AzGCLTSLs2-37" style="edgeStyle=orthogonalEdgeStyle;rounded=0;orthogonalLoop=1;jettySize=auto;html=1;endArrow=none;endFill=0;" parent="1" target="TZwm0IVaS_AzGCLTSLs2-25" edge="1">
                    <mxGeometry relative="1" as="geometry">
                        <mxPoint x="1020" y="360" as="sourcePoint"/>
                        <Array as="points">
                            <mxPoint x="1000" y="360"/>
                            <mxPoint x="1000" y="560"/>
                            <mxPoint x="570" y="560"/>
                        </Array>
                    </mxGeometry>
                </mxCell>
            </root>
        </mxGraphModel>
    </diagram>
    <diagram id="wm6QQZ8xRiwOx0i32CpU" name="Page-2">
        <mxGraphModel dx="1326" dy="87" grid="1" gridSize="10" guides="1" tooltips="1" connect="1" arrows="1" fold="1" page="1" pageScale="1" pageWidth="1169" pageHeight="827" math="0" shadow="0">
            <root>
                <mxCell id="0"/>
                <mxCell id="1" parent="0"/>
                <mxCell id="FqWdUeU9zEpqKWLSxgZC-1" value="«system»&lt;br&gt;&lt;b&gt;FW-Module&lt;/b&gt;" style="html=1;dropTarget=0;whiteSpace=wrap;verticalAlign=top;fillColor=none;strokeWidth=3;" vertex="1" parent="1">
                    <mxGeometry x="240" y="920" width="640" height="200" as="geometry"/>
                </mxCell>
                <mxCell id="FqWdUeU9zEpqKWLSxgZC-2" value="" style="shape=module;jettyWidth=8;jettyHeight=4;" vertex="1" parent="FqWdUeU9zEpqKWLSxgZC-1">
                    <mxGeometry x="1" width="20" height="20" relative="1" as="geometry">
                        <mxPoint x="-27" y="7" as="offset"/>
                    </mxGeometry>
                </mxCell>
                <mxCell id="FqWdUeU9zEpqKWLSxgZC-3" value="Component C" style="html=1;dropTarget=0;whiteSpace=wrap;" vertex="1" parent="1">
                    <mxGeometry x="680" y="980" width="160" height="80" as="geometry"/>
                </mxCell>
                <mxCell id="FqWdUeU9zEpqKWLSxgZC-4" value="" style="shape=module;jettyWidth=8;jettyHeight=4;" vertex="1" parent="FqWdUeU9zEpqKWLSxgZC-3">
                    <mxGeometry x="1" width="20" height="20" relative="1" as="geometry">
                        <mxPoint x="-27" y="7" as="offset"/>
                    </mxGeometry>
                </mxCell>
                <mxCell id="FqWdUeU9zEpqKWLSxgZC-5" style="edgeStyle=orthogonalEdgeStyle;rounded=0;orthogonalLoop=1;jettySize=auto;html=1;endArrow=open;endFill=0;dashed=1;dashPattern=8 8;" edge="1" parent="1" source="FqWdUeU9zEpqKWLSxgZC-7" target="FqWdUeU9zEpqKWLSxgZC-11">
                    <mxGeometry relative="1" as="geometry">
                        <Array as="points">
                            <mxPoint x="460" y="1020"/>
                            <mxPoint x="460" y="1020"/>
                        </Array>
                        <mxPoint x="480" y="900.0588235294117" as="targetPoint"/>
                    </mxGeometry>
                </mxCell>
                <mxCell id="FqWdUeU9zEpqKWLSxgZC-6" style="edgeStyle=orthogonalEdgeStyle;rounded=0;orthogonalLoop=1;jettySize=auto;html=1;endArrow=none;endFill=0;" edge="1" parent="1" source="FqWdUeU9zEpqKWLSxgZC-7" target="FqWdUeU9zEpqKWLSxgZC-16">
                    <mxGeometry relative="1" as="geometry"/>
                </mxCell>
                <mxCell id="FqWdUeU9zEpqKWLSxgZC-7" value="Component A" style="html=1;dropTarget=0;whiteSpace=wrap;" vertex="1" parent="1">
                    <mxGeometry x="280" y="980" width="160" height="80" as="geometry"/>
                </mxCell>
                <mxCell id="FqWdUeU9zEpqKWLSxgZC-8" value="" style="shape=module;jettyWidth=8;jettyHeight=4;" vertex="1" parent="FqWdUeU9zEpqKWLSxgZC-7">
                    <mxGeometry x="1" width="20" height="20" relative="1" as="geometry">
                        <mxPoint x="-27" y="7" as="offset"/>
                    </mxGeometry>
                </mxCell>
                <mxCell id="FqWdUeU9zEpqKWLSxgZC-9" style="edgeStyle=orthogonalEdgeStyle;rounded=0;orthogonalLoop=1;jettySize=auto;html=1;endArrow=none;endFill=0;" edge="1" parent="1" source="FqWdUeU9zEpqKWLSxgZC-3" target="FqWdUeU9zEpqKWLSxgZC-14">
                    <mxGeometry relative="1" as="geometry"/>
                </mxCell>
                <mxCell id="FqWdUeU9zEpqKWLSxgZC-10" style="edgeStyle=orthogonalEdgeStyle;rounded=0;orthogonalLoop=1;jettySize=auto;html=1;entryX=0;entryY=0.5;entryDx=0;entryDy=0;endArrow=none;endFill=0;startArrow=open;startFill=0;dashed=1;dashPattern=8 8;" edge="1" parent="1" source="FqWdUeU9zEpqKWLSxgZC-11" target="FqWdUeU9zEpqKWLSxgZC-3">
                    <mxGeometry relative="1" as="geometry"/>
                </mxCell>
                <mxCell id="FqWdUeU9zEpqKWLSxgZC-11" value="Component B" style="html=1;dropTarget=0;whiteSpace=wrap;" vertex="1" parent="1">
                    <mxGeometry x="480" y="980" width="160" height="80" as="geometry"/>
                </mxCell>
                <mxCell id="FqWdUeU9zEpqKWLSxgZC-12" value="" style="shape=module;jettyWidth=8;jettyHeight=4;" vertex="1" parent="FqWdUeU9zEpqKWLSxgZC-11">
                    <mxGeometry x="1" width="20" height="20" relative="1" as="geometry">
                        <mxPoint x="-27" y="7" as="offset"/>
                    </mxGeometry>
                </mxCell>
                <mxCell id="FqWdUeU9zEpqKWLSxgZC-13" style="edgeStyle=orthogonalEdgeStyle;rounded=0;orthogonalLoop=1;jettySize=auto;html=1;endArrow=none;endFill=0;" edge="1" parent="1" source="FqWdUeU9zEpqKWLSxgZC-11" target="FqWdUeU9zEpqKWLSxgZC-15">
                    <mxGeometry relative="1" as="geometry">
                        <mxPoint x="560" y="1290" as="sourcePoint"/>
                    </mxGeometry>
                </mxCell>
                <mxCell id="FqWdUeU9zEpqKWLSxgZC-14" value="" style="fontStyle=0;labelPosition=right;verticalLabelPosition=middle;align=left;verticalAlign=middle;spacingLeft=2;" vertex="1" parent="1">
                    <mxGeometry x="860" y="1000" width="40" height="40" as="geometry"/>
                </mxCell>
                <mxCell id="FqWdUeU9zEpqKWLSxgZC-15" value="" style="fontStyle=0;labelPosition=right;verticalLabelPosition=middle;align=left;verticalAlign=middle;spacingLeft=2;" vertex="1" parent="1">
                    <mxGeometry x="540" y="1100" width="40" height="40" as="geometry"/>
                </mxCell>
                <mxCell id="FqWdUeU9zEpqKWLSxgZC-16" value="" style="fontStyle=0;labelPosition=right;verticalLabelPosition=middle;align=left;verticalAlign=middle;spacingLeft=2;" vertex="1" parent="1">
                    <mxGeometry x="220" y="1000" width="40" height="40" as="geometry"/>
                </mxCell>
                <mxCell id="FqWdUeU9zEpqKWLSxgZC-17" style="edgeStyle=orthogonalEdgeStyle;rounded=0;orthogonalLoop=1;jettySize=auto;html=1;endArrow=none;endFill=0;" edge="1" parent="1" source="FqWdUeU9zEpqKWLSxgZC-20" target="FqWdUeU9zEpqKWLSxgZC-14">
                    <mxGeometry relative="1" as="geometry">
                        <mxPoint x="940" y="1130" as="sourcePoint"/>
                        <Array as="points">
                            <mxPoint x="920" y="1230"/>
                            <mxPoint x="920" y="1020"/>
                        </Array>
                    </mxGeometry>
                </mxCell>
                <mxCell id="FqWdUeU9zEpqKWLSxgZC-18" style="edgeStyle=orthogonalEdgeStyle;rounded=0;orthogonalLoop=1;jettySize=auto;html=1;endArrow=none;endFill=0;" edge="1" parent="1" source="FqWdUeU9zEpqKWLSxgZC-20" target="FqWdUeU9zEpqKWLSxgZC-15">
                    <mxGeometry relative="1" as="geometry">
                        <Array as="points">
                            <mxPoint x="560" y="1160"/>
                            <mxPoint x="560" y="1160"/>
                        </Array>
                    </mxGeometry>
                </mxCell>
                <mxCell id="FqWdUeU9zEpqKWLSxgZC-19" style="edgeStyle=orthogonalEdgeStyle;rounded=0;orthogonalLoop=1;jettySize=auto;html=1;entryX=0;entryY=0.5;entryDx=0;entryDy=0;endArrow=none;endFill=0;" edge="1" parent="1" source="FqWdUeU9zEpqKWLSxgZC-20" target="FqWdUeU9zEpqKWLSxgZC-16">
                    <mxGeometry relative="1" as="geometry"/>
                </mxCell>
                <mxCell id="FqWdUeU9zEpqKWLSxgZC-20" value="Component" style="verticalAlign=middle;align=center;shape=cube;size=10;direction=south;fontStyle=0;html=1;boundedLbl=1;spacingLeft=5;whiteSpace=wrap;container=0;" vertex="1" parent="1">
                    <mxGeometry x="515" y="1190" width="90" height="80" as="geometry"/>
                </mxCell>
                <mxCell id="FqWdUeU9zEpqKWLSxgZC-21" value="FW-Module" style="shape=umlFrame;whiteSpace=wrap;html=1;pointerEvents=0;recursiveResize=0;container=1;collapsible=0;width=160;" vertex="1" parent="1">
                    <mxGeometry x="160" y="870" width="800" height="450" as="geometry"/>
                </mxCell>
            </root>
        </mxGraphModel>
    </diagram>
</mxfile>